<svg id="instagram_1_" data-name="instagram (1)" xmlns="http://www.w3.org/2000/svg" width="71.482" height="71.482" viewBox="0 0 71.482 71.482">
  <path id="Caminho_62" data-name="Caminho 62" d="M220.682,213.841A6.841,6.841,0,1,1,213.841,207,6.841,6.841,0,0,1,220.682,213.841Zm0,0" transform="translate(-178.1 -178.1)" fill="#fff"/>
  <path id="Caminho_63" data-name="Caminho 63" d="M168.309,140.21a6.8,6.8,0,0,0-3.895-3.9,11.356,11.356,0,0,0-3.811-.706c-2.165-.1-2.814-.12-8.293-.12s-6.129.021-8.293.119a11.363,11.363,0,0,0-3.811.707,6.8,6.8,0,0,0-3.9,3.9,11.36,11.36,0,0,0-.706,3.811c-.1,2.164-.12,2.813-.12,8.293s.021,6.129.12,8.293a11.355,11.355,0,0,0,.706,3.81,6.8,6.8,0,0,0,3.9,3.9,11.342,11.342,0,0,0,3.811.707c2.164.1,2.812.119,8.293.119s6.13-.021,8.293-.119a11.342,11.342,0,0,0,3.811-.707,6.8,6.8,0,0,0,3.895-3.9,11.365,11.365,0,0,0,.707-3.81c.1-2.165.119-2.814.119-8.293s-.021-6.129-.119-8.293A11.341,11.341,0,0,0,168.309,140.21Zm-16,22.643a10.539,10.539,0,1,1,10.539-10.539A10.539,10.539,0,0,1,152.31,162.852Zm10.955-19.031a2.463,2.463,0,1,1,2.463-2.463A2.463,2.463,0,0,1,163.266,143.821Zm0,0" transform="translate(-116.569 -116.573)" fill="#fff"/>
  <path id="Caminho_64" data-name="Caminho 64" d="M35.741,0A35.741,35.741,0,1,0,71.482,35.741,35.745,35.745,0,0,0,35.741,0Zm20.4,44.2a15.058,15.058,0,0,1-.954,4.982,10.494,10.494,0,0,1-6,6,15.068,15.068,0,0,1-4.981.954c-2.189.1-2.888.124-8.461.124s-6.273-.024-8.462-.124a15.068,15.068,0,0,1-4.981-.954,10.494,10.494,0,0,1-6-6,15.054,15.054,0,0,1-.954-4.981c-.1-2.189-.124-2.888-.124-8.462s.023-6.273.124-8.461a15.059,15.059,0,0,1,.953-4.982,10.5,10.5,0,0,1,6-6,15.071,15.071,0,0,1,4.982-.954c2.189-.1,2.888-.124,8.461-.124s6.273.024,8.461.124a15.075,15.075,0,0,1,4.982.953,10.5,10.5,0,0,1,6,6,15.056,15.056,0,0,1,.954,4.982c.1,2.189.123,2.888.123,8.461S56.241,42.014,56.141,44.2Zm0,0" fill="#fff"/>
</svg>
