<svg id="whatsapp" xmlns="http://www.w3.org/2000/svg" width="70.999" height="71" viewBox="0 0 70.999 71">
  <path id="Caminho_78" data-name="Caminho 78" d="M35.5,0A35.5,35.5,0,1,0,71,35.5,35.5,35.5,0,0,0,35.5,0Zm.752,56.169h-.009A21.239,21.239,0,0,1,26.09,53.583L14.826,56.537,17.841,45.53A21.248,21.248,0,1,1,36.252,56.169Zm0,0" fill="#fff"/>
  <path id="Caminho_79" data-name="Caminho 79" d="M151.738,124.469a17.662,17.662,0,0,0-14.967,27.048l.42.668-1.784,6.515,6.684-1.753.645.382a17.632,17.632,0,0,0,8.988,2.461h.007a17.661,17.661,0,0,0,.008-35.321Zm10.387,25.243c-.443,1.239-2.563,2.371-3.583,2.524a7.286,7.286,0,0,1-3.344-.21,30.662,30.662,0,0,1-3.027-1.118c-5.325-2.3-8.8-7.659-9.069-8.014a10.323,10.323,0,0,1-2.168-5.491,5.951,5.951,0,0,1,1.858-4.427,1.951,1.951,0,0,1,1.416-.664c.354,0,.708,0,1.017.018.326.016.764-.124,1.194.911.443,1.063,1.5,3.675,1.637,3.94a.979.979,0,0,1,.044.93,15.129,15.129,0,0,1-1.327,1.815c-.236.292-.543.552-.233,1.083a16,16,0,0,0,2.953,3.676,14.512,14.512,0,0,0,4.27,2.634c.53.265.84.221,1.15-.133s1.327-1.55,1.681-2.081.708-.443,1.194-.265,3.1,1.461,3.628,1.726.885.4,1.017.62a4.427,4.427,0,0,1-.309,2.524Zm0,0" transform="translate(-115.479 -107.209)" fill="#fff"/>
</svg>
