<svg xmlns="http://www.w3.org/2000/svg" width="42" height="42" viewBox="0 0 42 42"><path d="M21,0A21,21,0,1,0,42,21,21,21,0,0,0,21,0Zm0,39.375A18.375,18.375,0,1,1,39.375,21,18.375,18.375,0,0,1,21,39.375Z" fill="#ea079e" fill-rule="evenodd"/><path d="M22.729,21.271,17.461,16,22.7,10.807a.992.992,0,0,0,0-1.414,1.018,1.018,0,0,0-1.428,0L16.04,14.581l-5.309-5.31A1.011,1.011,0,1,0,9.3,10.7l5.3,5.3L9.273,21.292a.994.994,0,0,0,0,1.414,1.017,1.017,0,0,0,1.429,0l5.324-5.28L21.3,22.7a1.01,1.01,0,1,0,1.427-1.431Z" transform="translate(5.001 4.993)" fill="#ea079e" fill-rule="evenodd"/></svg>