<svg xmlns="http://www.w3.org/2000/svg" width="32.774" height="32.104" viewBox="0 0 32.774 32.104"><g transform="translate(0.298 0)" opacity="0.65"><circle cx="16" cy="16" r="16" transform="translate(-0.298 0)" fill="#f0f0f0"/><g transform="translate(1.03 3.585)"><path d="M244.87,193.391h16.694a16.016,16.016,0,0,0-.551-4.174H244.87Z" transform="translate(-230.118 -180.87)" fill="#d80027"/><path d="M244.87,59.826h14.346a16.085,16.085,0,0,0-3.692-4.174H244.87Z" transform="translate(-230.118 -55.652)" fill="#d80027"/><path d="M106.6,459.826a15.93,15.93,0,0,0,9.959-3.478H96.644A15.93,15.93,0,0,0,106.6,459.826Z" transform="translate(-91.155 -431.307)" fill="#d80027"/><path d="M10.616,326.956h27.3a15.9,15.9,0,0,0,1.8-4.174H8.819A15.9,15.9,0,0,0,10.616,326.956Z" transform="translate(-8.819 -306.088)" fill="#d80027"/></g><path d="M7.411,2.5H8.869l-1.356.985.518,1.594L6.675,4.093l-1.356.985L5.766,3.7a16.087,16.087,0,0,0-3.1,3.458H3.13l-.863.627q-.2.337-.387.684l.412,1.269L1.523,9.18Q1.236,9.787,1,10.422l.454,1.4H3.13L1.774,12.8,2.292,14.4.936,13.414.124,14A16.153,16.153,0,0,0,0,16H16V0A15.923,15.923,0,0,0,7.411,2.5Zm.62,11.9-1.356-.985L5.319,14.4,5.837,12.8,4.48,11.819H6.157l.518-1.594.518,1.594H8.869L7.513,12.8ZM7.513,8.144l.518,1.594L6.675,8.753l-1.356.985.518-1.594L4.48,7.159H6.157l.518-1.594.518,1.594H8.869ZM13.769,14.4l-1.356-.985-1.356.985.518-1.594-1.356-.985H11.9l.518-1.594.518,1.594h1.676l-1.356.985Zm-.518-6.255.518,1.594-1.356-.985-1.356.985.518-1.594-1.356-.985H11.9l.518-1.594.518,1.594h1.676Zm0-4.66.518,1.594-1.356-.985-1.356.985.518-1.594L10.219,2.5H11.9L12.413.9,12.931,2.5h1.676Z" transform="translate(0.479 0.107)" fill="#0052b4"/></g></svg>