<svg xmlns="http://www.w3.org/2000/svg" width="21.005" height="20.834" viewBox="0 0 21.005 20.834"><g transform="translate(0)"><path d="M295.7.158A.7.7,0,0,1,296.839.7v9.382l-7.7-4.551Z" transform="translate(-277.234 0)" fill="#f2f0eb"/><path d="M348.544,62.748l-4.689-2.771,3.907-4.4a.447.447,0,0,1,.782.3Z" transform="translate(-329.64 -53.078)" fill="#f2f0eb"/><path d="M41.743.158A.7.7,0,0,0,40.6.7v9.382l7.7-4.551Z" transform="translate(-39.201 0)" fill="#f2f0eb"/><path d="M57.17,62.748l4.689-2.771-3.907-4.4a.447.447,0,0,0-.782.3Z" transform="translate(-55.069 -53.078)" fill="#f2f0eb"/><ellipse cx="9.802" cy="8.876" rx="9.802" ry="8.876" transform="translate(0.7 3.081)" fill="#f2f0eb"/><path d="M225.662,413.286v.7a1.4,1.4,0,0,1-1.4,1.4h0a1.4,1.4,0,0,1-1.4-1.4v-.7l1.4-.7Z" transform="translate(-213.759 -395.953)" fill="#f2f0eb"/><path d="M230.236,343.862H228.69a.4.4,0,0,0-.309.646l.773.956a.4.4,0,0,0,.618,0l.773-.956A.4.4,0,0,0,230.236,343.862Z" transform="translate(-218.96 -329.917)" fill="#f2f0eb"/><g transform="translate(14.047 14.086)"><path d="M345.786,380.9a.349.349,0,0,1-.161-.039,24.9,24.9,0,0,0-5.463-1.761.35.35,0,1,1,.134-.687,25.1,25.1,0,0,1,5.652,1.827.35.35,0,0,1-.162.661Z" transform="translate(-339.879 -377.305)" fill="#f2f0eb"/><path d="M359.878,353.439a.354.354,0,0,1-.091-.012,25.476,25.476,0,0,0-5.565-.426.35.35,0,0,1-.021-.7,25.645,25.645,0,0,1,5.769.449.35.35,0,0,1-.091.688Z" transform="translate(-353.27 -352.291)" fill="#f2f0eb"/></g><path d="M36.285,92.771c-5.414,0-9.8-3.973-9.8-8.874a8.88,8.88,0,0,1,5.769-8.087c-4.661.685-8.219,4.344-8.219,8.757,0,4.9,4.389,8.874,9.8,8.874a10.633,10.633,0,0,0,4.033-.787A10.875,10.875,0,0,1,36.285,92.771Z" transform="translate(-23.332 -72.606)" fill="#f2f0eb"/><g transform="translate(0 14.086)"><path d="M24.38,380.9a.35.35,0,0,1-.162-.661,25.107,25.107,0,0,1,5.652-1.827A.35.35,0,0,1,30,379.1a24.9,24.9,0,0,0-5.463,1.761A.348.348,0,0,1,24.38,380.9Z" transform="translate(-23.33 -377.3)" fill="#f2f0eb"/><path d="M7.811,353.443a.35.35,0,0,1-.091-.688,25.671,25.671,0,0,1,5.768-.449.35.35,0,0,1-.021.7,25.5,25.5,0,0,0-5.565.426A.349.349,0,0,1,7.811,353.443Z" transform="translate(-7.461 -352.295)" fill="#f2f0eb"/></g><path d="M132.956,250.046h0a1.229,1.229,0,0,1-1.225-1.225v-.7a1.229,1.229,0,0,1,1.225-1.225h0a1.229,1.229,0,0,1,1.225,1.225v.7A1.229,1.229,0,0,1,132.956,250.046Z" transform="translate(-126.48 -236.914)" fill="#f2f0eb"/><path d="M156.76,246.9a1.194,1.194,0,0,0-.175.018v1.733a.7.7,0,1,0,1.4,0v-.525A1.229,1.229,0,0,0,156.76,246.9Z" transform="translate(-150.283 -236.898)" fill="#f2f0eb"/><circle cx="0.525" cy="0.525" r="0.525" transform="translate(5.952 10.364)" fill="#f2f0eb"/><path d="M323.5,250.046h0a1.229,1.229,0,0,1-1.225-1.225v-.7A1.229,1.229,0,0,1,323.5,246.9h0a1.229,1.229,0,0,1,1.225,1.225v.7A1.229,1.229,0,0,1,323.5,250.046Z" transform="translate(-308.972 -236.914)" fill="#f2f0eb"/><path d="M347.3,246.9a1.192,1.192,0,0,0-.175.018v1.733a.7.7,0,0,0,1.4,0v-.525A1.229,1.229,0,0,0,347.3,246.9Z" transform="translate(-332.776 -236.898)" fill="#f2f0eb"/><circle cx="0.525" cy="0.525" r="0.525" transform="translate(14.003 10.364)" fill="#f2f0eb"/><path d="M229.733,345.479l-.773-1.53a.75.75,0,0,1-.032-.088h-.238a.4.4,0,0,0-.309.647l.773.956a.393.393,0,0,0,.586.025Z" transform="translate(-218.96 -329.916)" fill="#f2f0eb"/><path d="M224.261,412.586l-1.4.7v.7a1.4,1.4,0,0,0,.041.322,3.153,3.153,0,0,0,1.01-.3v.331a.35.35,0,1,0,.7,0v-.331a3.154,3.154,0,0,0,1.01.3,1.4,1.4,0,0,0,.041-.322v-.7Z" transform="translate(-213.759 -395.953)" fill="#f2f0eb"/><path d="M178.4,409.371a2.435,2.435,0,0,1-1.38-.426.67.67,0,0,0-.741,0,2.445,2.445,0,0,1-3.014-.2.35.35,0,1,1,.468-.521,1.781,1.781,0,0,0,2.151.145,1.367,1.367,0,0,1,1.531,0,1.782,1.782,0,0,0,2.151-.145.35.35,0,0,1,.467.521A2.445,2.445,0,0,1,178.4,409.371Z" transform="translate(-166.15 -391.688)" fill="#f2f0eb"/></g></svg>