<svg xmlns="http://www.w3.org/2000/svg" width="28" height="19.688" viewBox="0 0 28 19.688">
  <path id="Caminho_58" data-name="Caminho 58" d="M25.539,76H2.461A2.465,2.465,0,0,0,0,78.461V93.227a2.465,2.465,0,0,0,2.461,2.461H25.539A2.464,2.464,0,0,0,28,93.227V78.461A2.463,2.463,0,0,0,25.539,76Zm-.345,1.641-9.454,9.4a2.461,2.461,0,0,1-3.482,0l-9.453-9.4ZM1.641,92.893V78.8l7.09,7.052Zm1.166,1.154,7.087-7.042,1.206,1.2a4.1,4.1,0,0,0,5.8,0l1.208-1.2,7.087,7.042Zm23.553-1.154-7.09-7.045,7.09-7.052Z" transform="translate(0 -76)" fill="#e3dede"/>
</svg>
