<svg xmlns="http://www.w3.org/2000/svg" width="32" height="32" viewBox="0 0 32 32"><g transform="translate(0 0)" opacity="0.65"><circle cx="16" cy="16" r="16" transform="translate(0 0)" fill="#6da544"/><path d="M57.775,100.174l13.253,9.87-13.253,9.87-13.253-9.87Z" transform="translate(-41.816 -93.978)" fill="#ffda44"/><circle cx="5.413" cy="5.413" r="5.413" transform="translate(10.549 10.656)" fill="#f0f0f0"/><g transform="translate(10.55 10.656)"><path d="M169.69,250.435a9.1,9.1,0,0,0-2.7.409,5.411,5.411,0,0,0,9.844,3.034A9.122,9.122,0,0,0,169.69,250.435Z" transform="translate(-166.985 -245.361)" fill="#0052b4"/><path d="M184.461,173.407a5.413,5.413,0,0,0-10.286-3.173,11.158,11.158,0,0,1,10.286,3.173Z" transform="translate(-173.738 -166.957)" fill="#0052b4"/></g></g></svg>