<svg xmlns="http://www.w3.org/2000/svg" width="40.25" height="40.25" viewBox="0 0 40.25 40.25"><path d="M214.89,210.945A3.945,3.945,0,1,1,210.945,207,3.945,3.945,0,0,1,214.89,210.945Zm0,0" transform="translate(-190.82 -190.82)" fill="#f227ae"/><path d="M154.414,138.211a3.919,3.919,0,0,0-2.246-2.246,6.548,6.548,0,0,0-2.2-.407c-1.248-.057-1.622-.069-4.783-.069s-3.535.012-4.783.069a6.553,6.553,0,0,0-2.2.408,3.921,3.921,0,0,0-2.246,2.246,6.551,6.551,0,0,0-.407,2.2c-.057,1.248-.069,1.622-.069,4.783s.012,3.534.069,4.783a6.548,6.548,0,0,0,.407,2.2,3.919,3.919,0,0,0,2.246,2.246,6.541,6.541,0,0,0,2.2.408c1.248.057,1.622.069,4.782.069s3.535-.012,4.783-.069a6.541,6.541,0,0,0,2.2-.408,3.919,3.919,0,0,0,2.246-2.246,6.555,6.555,0,0,0,.408-2.2c.057-1.248.069-1.622.069-4.783s-.012-3.535-.069-4.783A6.54,6.54,0,0,0,154.414,138.211Zm-9.226,13.057a6.077,6.077,0,1,1,6.077-6.077A6.077,6.077,0,0,1,145.188,151.268Zm6.318-10.975a1.42,1.42,0,1,1,1.42-1.42A1.42,1.42,0,0,1,151.505,140.294Zm0,0" transform="translate(-125.062 -125.066)" fill="#f227ae"/><path d="M20.125,0A20.125,20.125,0,1,0,40.25,20.125,20.127,20.127,0,0,0,20.125,0ZM31.611,24.889a8.479,8.479,0,0,1-.537,2.805,5.909,5.909,0,0,1-3.38,3.38,8.484,8.484,0,0,1-2.8.537c-1.232.056-1.626.07-4.764.07s-3.532-.014-4.765-.07a8.484,8.484,0,0,1-2.8-.537,5.909,5.909,0,0,1-3.38-3.38,8.476,8.476,0,0,1-.537-2.8c-.057-1.233-.07-1.626-.07-4.765s.013-3.532.07-4.764a8.479,8.479,0,0,1,.537-2.805,5.913,5.913,0,0,1,3.38-3.38,8.486,8.486,0,0,1,2.805-.537c1.232-.056,1.626-.07,4.764-.07s3.532.014,4.764.07a8.488,8.488,0,0,1,2.805.536,5.911,5.911,0,0,1,3.38,3.38,8.478,8.478,0,0,1,.537,2.805c.056,1.232.069,1.626.069,4.764S31.668,23.657,31.611,24.889Zm0,0" fill="#f227ae"/></svg>