<svg id="phone" xmlns="http://www.w3.org/2000/svg" width="29.172" height="29.172" viewBox="0 0 29.172 29.172">
  <path id="Caminho_59" data-name="Caminho 59" d="M26.869,19.208a16.664,16.664,0,0,1-5.233-.832,2.245,2.245,0,0,0-2.277.482l-3.313,2.5a18.5,18.5,0,0,1-8.233-8.231l2.434-3.234a2.323,2.323,0,0,0,.57-2.349A16.682,16.682,0,0,1,9.98,2.3,2.3,2.3,0,0,0,7.677,0H2.3A2.3,2.3,0,0,0,0,2.3,26.9,26.9,0,0,0,26.869,29.172a2.3,2.3,0,0,0,2.3-2.3V21.511A2.3,2.3,0,0,0,26.869,19.208Z" transform="translate(0)" fill="#e3dede"/>
  <g id="Grupo_24" data-name="Grupo 24" transform="translate(14.658)">
    <path id="Caminho_60" data-name="Caminho 60" d="M248.273,14.514a.907.907,0,0,1-.907-.907A11.807,11.807,0,0,0,235.573,1.814a.907.907,0,1,1,0-1.814A13.622,13.622,0,0,1,249.18,13.607.907.907,0,0,1,248.273,14.514Z" transform="translate(-234.666)" fill="#e3dede"/>
    <path id="Caminho_61" data-name="Caminho 61" d="M241.016,92.59a.907.907,0,0,1-.907-.907,4.536,4.536,0,0,0-4.536-4.536.907.907,0,0,1,0-1.814,6.35,6.35,0,0,1,6.35,6.35A.907.907,0,0,1,241.016,92.59Z" transform="translate(-234.666 -78.076)" fill="#e3dede"/>
  </g>
</svg>
