<svg id="Grupo_20" data-name="Grupo 20" xmlns="http://www.w3.org/2000/svg" width="37.5" height="50" viewBox="0 0 37.5 50">
  <g id="Grupo_19" data-name="Grupo 19" transform="translate(0 0)">
    <path id="Caminho_46" data-name="Caminho 46" d="M100.807,6.309,83.1.059a1.04,1.04,0,0,0-.694,0L64.7,6.309a1.045,1.045,0,0,0-.7.983v12.5c0,16.177,2.4,22.09,18.281,30.1a1.039,1.039,0,0,0,.938,0C99.1,41.879,101.5,35.967,101.5,19.791V7.291A1.045,1.045,0,0,0,100.807,6.309ZM74.418,22.917a3.125,3.125,0,0,1,0,6.25H72.335a1.042,1.042,0,1,1,0-2.084h2.083a1.042,1.042,0,1,0,0-2.084,3.125,3.125,0,0,1,0-6.25H76.5a1.042,1.042,0,1,1,0,2.084H74.418a1.042,1.042,0,0,0,0,2.084Zm8.333,0a3.125,3.125,0,0,1,0,6.25H80.668a1.042,1.042,0,1,1,0-2.084h2.083a1.042,1.042,0,0,0,0-2.084,3.125,3.125,0,0,1,0-6.25h2.083a1.042,1.042,0,1,1,0,2.084H82.751a1.042,1.042,0,0,0,0,2.084Zm10.417,6.25H89a1.041,1.041,0,0,1-1.042-1.042V19.791a1.042,1.042,0,1,1,2.084,0v7.292h3.125a1.042,1.042,0,1,1,0,2.083Z" transform="translate(-64 0.001)" fill="rgba(227,222,222,0.5)"/>
  </g>
</svg>
