<svg xmlns="http://www.w3.org/2000/svg" width="54" height="56" viewBox="0 0 54 56">
  <g id="Grupo_94" data-name="Grupo 94" transform="translate(0.294 0.5)">
    <ellipse id="Elipse_7" data-name="Elipse 7" cx="26.5" cy="27.5" rx="26.5" ry="27.5" transform="translate(0.206 0)" fill="#c1b8b8" stroke="#936cad" stroke-width="1"/>
    <path id="Caminho_576" data-name="Caminho 576" d="M78.205,93.344a12.135,12.135,0,0,0,4.6-9.72c0-6.351-4.61-11.5-10.3-11.5s-10.3,5.148-10.3,11.5a12.135,12.135,0,0,0,4.6,9.72h0c-6.71,2.326-11.827,8.425-13.469,16.052h0c.271.371.552.733.841,1.092.07.086.143.169.214.254.221.273.445.529.676.786.1.106.192.209.29.312.213.229.428.456.648.682.109.109.22.217.33.323q.323.314.656.614c.122.106.235.21.352.314q.337.295.684.574c.122.1.237.2.358.289.244.191.489.374.742.554.112.08.222.164.336.244.288.2.582.394.877.583.078.049.154.1.233.151q.574.356,1.166.682l.029.015q.565.307,1.146.581c.122.057.244.108.367.162.28.127.56.251.844.366.152.061.3.117.456.175.259.1.521.2.782.284.166.056.334.109.5.161q.381.12.769.227.261.071.525.136.387.1.778.177c.177.037.353.075.532.106.27.049.54.091.813.136.171.026.342.053.514.074.3.037.6.063.907.087.147.012.292.029.439.038.452.029.907.046,1.365.046s.913-.016,1.365-.044c.147-.008.292-.026.439-.038.3-.025.611-.05.907-.087.172-.022.343-.049.514-.074.273-.04.544-.082.813-.136.177-.033.354-.07.532-.106.26-.055.521-.113.778-.177q.264-.066.525-.136.386-.106.769-.226c.167-.052.336-.105.5-.161.264-.09.523-.186.782-.284.152-.059.305-.113.456-.175.283-.116.565-.239.844-.366.122-.055.244-.106.367-.162.385-.183.766-.374,1.141-.579l.034-.018q.593-.322,1.166-.682c.079-.049.155-.1.233-.151.3-.188.589-.381.877-.583.114-.079.224-.162.336-.244.244-.181.5-.364.742-.554.122-.094.244-.191.358-.289q.346-.281.684-.574c.122-.1.235-.209.352-.314q.332-.3.656-.614c.111-.106.221-.216.33-.323.22-.221.435-.448.648-.682.1-.1.194-.207.29-.312q.345-.385.676-.786c.071-.086.143-.168.214-.254.287-.355.569-.716.841-1.092h0C90.042,101.768,84.92,95.667,78.205,93.344Z" transform="translate(-46.101 -64.652)" fill="#c1b8b8" stroke="#936cad" stroke-width="1"/>
  </g>
</svg>
