<svg id="whatsapp" xmlns="http://www.w3.org/2000/svg" width="30" height="30" viewBox="0 0 30 30">
  <path id="Caminho_78" data-name="Caminho 78" d="M15,0A15,15,0,1,0,30,15,15,15,0,0,0,15,0Zm.318,23.733h0a8.974,8.974,0,0,1-4.29-1.092L6.265,23.889l1.274-4.651a8.978,8.978,0,1,1,7.779,4.5Zm0,0" fill="#e3dede"/>
  <path id="Caminho_79" data-name="Caminho 79" d="M141.958,124.469c-4.348,0-7.885,3.155-7.887,7.034a6.473,6.473,0,0,0,1.205,3.743l.187.266-.8,2.6,2.984-.7.288.152a8.6,8.6,0,0,0,4.012.981h0c4.345,0,7.881-3.155,7.883-7.034a6.633,6.633,0,0,0-2.307-4.976,8.333,8.333,0,0,0-5.573-2.063Zm4.637,10.058a2.457,2.457,0,0,1-1.6,1.006,3.631,3.631,0,0,1-1.493-.084c-.344-.1-.786-.228-1.351-.445a10.19,10.19,0,0,1-4.048-3.193,3.9,3.9,0,0,1-.968-2.188,2.274,2.274,0,0,1,.829-1.764.921.921,0,0,1,.632-.265c.158,0,.316,0,.454.007s.341-.049.533.363.672,1.464.731,1.57a.354.354,0,0,1,.02.371,6.1,6.1,0,0,1-.592.723c-.105.116-.242.22-.1.432a6.543,6.543,0,0,0,1.318,1.465,6.684,6.684,0,0,0,1.906,1.05c.237.106.375.088.513-.053s.592-.617.75-.829.316-.176.533-.106,1.382.582,1.619.688.395.159.454.247A1.588,1.588,0,0,1,146.595,134.527Zm0,0" transform="translate(-126.654 -116.764)" fill="#e3dede"/>
</svg>
