<svg xmlns="http://www.w3.org/2000/svg" width="177.716" height="214.036" viewBox="0 0 177.716 214.036"><g transform="translate(0 0)"><g transform="translate(61.445 109.291)"><path d="M248.994,335.315l-3.662,31.365,3.662,23.462a27.413,27.413,0,0,0,0-54.826Z" transform="translate(-221.581 -335.315)" fill="#f7f0eb"/><path d="M176.157,362.728a27.444,27.444,0,0,0,27.413,27.413V335.315A27.444,27.444,0,0,0,176.157,362.728Z" transform="translate(-176.157 -335.315)" fill="#fffbf5"/></g><g transform="translate(38.549)"><path d="M248.994,17l-3.662,74.734,3.662,62.246a32.539,32.539,0,0,0,58.888-9.33c.53-1.964,11.027-41.12,11.027-57.735A69.994,69.994,0,0,0,248.994,17Z" transform="translate(-197.722 -16.999)" fill="#efe2dd"/><path d="M106.666,80.746h51.272V17a69.677,69.677,0,0,0-48.748,19.85c-.01.118-2.524,43.9-2.524,43.9Z" transform="translate(-106.666 -16.999)" fill="#f7f0eb"/></g><g transform="translate(17.98 19.85)"><path d="M248.994,127.825l-3.662,25.7,3.662,31.321c5.744-13.4,9.728-25.021,9.728-34.532C258.723,143.234,257.009,133.692,248.994,127.825Z" transform="translate(-179.079 -109.624)" fill="#ebb65b"/><path d="M121.477,92.451c-8.159-5.44-16.459-3.079-23.783-1-8.632,2.455-13.788,3.57-19.38-2.022-5.556-5.556-4.79-14.5-4.78-14.619a69.708,69.708,0,0,0-21.167,50.065c0,16.608,10.488,55.737,11.026,57.733a32.539,32.539,0,0,0,58.889,9.333V93.014Q121.89,92.727,121.477,92.451Z" transform="translate(-52.367 -74.813)" fill="#ffc663"/></g><g transform="translate(55.373 61.82)"><path d="M158.473,197.052h10.3v20.239h-10.3Z" transform="translate(-158.473 -197.052)" fill="#32393f"/><path d="M323.526,197.052h10.3v20.239h-10.3Z" transform="translate(-266.857 -197.052)" fill="#262b2f"/></g><g transform="translate(73.116 94.202)"><path d="M252.675,291.368h-3.681l-3.662,13.492,3.662,14.842,9.886-5.931a12.061,12.061,0,0,0-6.205-22.4Z" transform="translate(-233.253 -291.368)" fill="#744727"/><path d="M222.212,291.368a12.061,12.061,0,0,0-6.205,22.4l9.886,5.931V291.368Z" transform="translate(-210.151 -291.368)" fill="#8d562f"/></g><g transform="translate(0 17.88)"><path d="M39.149,71.04C35.593,69.013,27.5,68.4,21.955,69.929a29.885,29.885,0,0,0-15.8,11.3l-.049.066A30.6,30.6,0,0,0,.04,101.175l1.913,54.812,0,.091a23.86,23.86,0,0,0,23.832,22.61h3.4l-1.445-6.3c-.055-.241-5.264-24.387,1.109-55.229,3.083-14.92,11.323-27.455,10.3-46.118Z" transform="translate(0 -69.075)" fill="#c97840"/><path d="M397.808,71.04c3.556-2.027,11.653-2.638,17.194-1.111a29.885,29.885,0,0,1,15.8,11.3l.049.066a30.6,30.6,0,0,1,6.07,19.884L435,155.988l0,.091a23.86,23.86,0,0,1-23.832,22.61h-3.4l1.445-6.3c.055-.241,5.264-24.387-1.109-55.229-3.083-14.92-11.323-27.455-10.3-46.118Z" transform="translate(-259.241 -69.075)" fill="#ae632c"/></g></g><text transform="translate(4.467 203.036)" fill="#ae632c" font-size="42" font-family="QuietMeows, Quiet Meows"><tspan x="0" y="0">Am</tspan><tspan y="0" fill="#ffc663">i</tspan><tspan y="0">c</tspan><tspan y="0" font-family="SegoeUI, Segoe UI">ã</tspan><tspan y="0">o</tspan></text></svg>