<svg xmlns="http://www.w3.org/2000/svg" width="33.126" height="23.292" viewBox="0 0 33.126 23.292">
  <g id="mail" transform="translate(0 -76)">
    <g id="Grupo_23" data-name="Grupo 23" transform="translate(0 76)">
      <path id="Caminho_58" data-name="Caminho 58" d="M30.215,76H2.912A2.916,2.916,0,0,0,0,78.912V96.381a2.916,2.916,0,0,0,2.912,2.912h27.3a2.915,2.915,0,0,0,2.912-2.912V78.912A2.914,2.914,0,0,0,30.215,76Zm-.408,1.941L18.622,89.067a2.912,2.912,0,0,1-4.119,0L3.319,77.941ZM1.941,95.985V79.308l8.388,8.343ZM3.32,97.351,11.7,89.02l1.427,1.42a4.853,4.853,0,0,0,6.861,0l1.429-1.422,8.384,8.331Zm27.865-1.366L22.8,87.651l8.388-8.343Z" transform="translate(0 -76)" fill="#fff"/>
    </g>
  </g>
</svg>
