<svg id="phone" xmlns="http://www.w3.org/2000/svg" width="25.979" height="25.979" viewBox="0 0 25.979 25.979">
  <path id="Caminho_59" data-name="Caminho 59" d="M23.928,17.1a14.839,14.839,0,0,1-4.66-.741,2,2,0,0,0-2.028.429L14.29,19.019a16.478,16.478,0,0,1-7.331-7.33l2.167-2.88a2.069,2.069,0,0,0,.507-2.092,14.856,14.856,0,0,1-.745-4.667A2.051,2.051,0,0,0,6.836,0H2.051A2.051,2.051,0,0,0,0,2.051,23.955,23.955,0,0,0,23.928,25.979a2.051,2.051,0,0,0,2.051-2.051V19.156A2.051,2.051,0,0,0,23.928,17.1Z" fill="#fff"/>
  <g id="Grupo_24" data-name="Grupo 24" transform="translate(15.04)">
    <path id="Caminho_60" data-name="Caminho 60" d="M244.921,10.938a.684.684,0,0,1-.684-.684,8.9,8.9,0,0,0-8.887-8.887.684.684,0,1,1,0-1.367A10.266,10.266,0,0,1,245.6,10.255.684.684,0,0,1,244.921,10.938Z" transform="translate(-234.666)" fill="#fff"/>
    <path id="Caminho_61" data-name="Caminho 61" d="M239.452,90.8a.684.684,0,0,1-.684-.684A3.418,3.418,0,0,0,235.35,86.7a.684.684,0,1,1,0-1.367,4.786,4.786,0,0,1,4.786,4.786A.684.684,0,0,1,239.452,90.8Z" transform="translate(-234.666 -79.864)" fill="#fff"/>
  </g>
</svg>
