<svg id="SSL" xmlns="http://www.w3.org/2000/svg" width="184.717" height="246.292" viewBox="0 0 184.717 246.292">
  <g id="Grupo_19" data-name="Grupo 19" transform="translate(0 0)">
    <path id="Caminho_46" data-name="Caminho 46" d="M245.3,31.08,158.075.292a5.123,5.123,0,0,0-3.417,0L67.43,31.08A5.15,5.15,0,0,0,64,35.92V97.49C64,177.173,75.815,206.3,154.049,245.74a5.116,5.116,0,0,0,4.619,0c78.234-39.445,90.049-68.569,90.049-148.249V35.92A5.15,5.15,0,0,0,245.3,31.08ZM115.318,112.887a15.394,15.394,0,1,1,0,30.787H105.055a5.132,5.132,0,1,1,0-10.263h10.261a5.132,5.132,0,0,0,0-10.263,15.394,15.394,0,0,1,0-30.787H125.57a5.132,5.132,0,0,1,0,10.263H115.318a5.132,5.132,0,0,0,0,10.263Zm41.048,0a15.394,15.394,0,1,1,0,30.787H146.105a5.132,5.132,0,0,1,0-10.263h10.261a5.132,5.132,0,0,0,0-10.263,15.394,15.394,0,1,1,0-30.787h10.261a5.132,5.132,0,1,1,0,10.263H156.366a5.132,5.132,0,1,0,0,10.263Zm51.311,30.785H187.154a5.129,5.129,0,0,1-5.132-5.132V97.492a5.132,5.132,0,1,1,10.263,0v35.919h15.393a5.131,5.131,0,1,1,0,10.262Z" transform="translate(-64 0.001)" fill="#e3dede"/>
  </g>
</svg>
