<svg id="youtube-logotype" xmlns="http://www.w3.org/2000/svg" width="71.754" height="71.754" viewBox="0 0 71.754 71.754">
  <g id="Grupo_26" data-name="Grupo 26">
    <path id="Caminho_72" data-name="Caminho 72" d="M25.676,51.568H28.52v15.4h2.691v-15.4h2.9V49.047H25.676Z" transform="translate(-6.828 -13.044)" fill="#fff"/>
    <path id="Caminho_73" data-name="Caminho 73" d="M54.892,53.45a3.274,3.274,0,0,0-2.5,1.448V49.046H49.973V66.964h2.419V65.67a3.3,3.3,0,0,0,2.5,1.478,1.915,1.915,0,0,0,1.933-1.5,10.628,10.628,0,0,0,.245-2.69V57.641a10.255,10.255,0,0,0-.245-2.683A1.914,1.914,0,0,0,54.892,53.45Zm-.242,9.7c0,1.207-.354,1.8-1.053,1.8a1.725,1.725,0,0,1-1.206-.6V56.216a1.737,1.737,0,0,1,1.206-.589c.7,0,1.053.618,1.053,1.822Z" transform="translate(-13.29 -13.044)" fill="#fff"/>
    <path id="Caminho_74" data-name="Caminho 74" d="M42.18,65.471c-.537.758-1.044,1.132-1.53,1.132-.323,0-.507-.19-.566-.566a7.469,7.469,0,0,1-.022-.94V55.268H37.643V65.823a6.806,6.806,0,0,0,.214,1.986,1.486,1.486,0,0,0,1.558.994,3.876,3.876,0,0,0,2.765-1.64v1.456H44.6V55.268H42.18Z" transform="translate(-10.011 -14.698)" fill="#fff"/>
    <path id="Caminho_75" data-name="Caminho 75" d="M46.23,35.054c.788,0,1.166-.625,1.166-1.873V27.506c0-1.249-.378-1.87-1.166-1.87s-1.167.622-1.167,1.87v5.675C45.063,34.43,45.442,35.054,46.23,35.054Z" transform="translate(-11.984 -6.818)" fill="#fff"/>
    <path id="Caminho_76" data-name="Caminho 76" d="M35.877,0A35.877,35.877,0,1,0,71.754,35.877,35.877,35.877,0,0,0,35.877,0Zm3.99,16.781h2.438v9.933a5.757,5.757,0,0,0,.029.951c.054.379.246.573.573.573.489,0,1-.379,1.544-1.144V16.781H46.9V30.272H44.452V28.8a3.925,3.925,0,0,1-2.793,1.657,1.5,1.5,0,0,1-1.575-1,6.818,6.818,0,0,1-.217-2.006V16.781Zm-9.233,4.4A5.243,5.243,0,0,1,31.4,18a3.625,3.625,0,0,1,5.7,0,5.3,5.3,0,0,1,.758,3.178V25.9a5.28,5.28,0,0,1-.758,3.173,3.63,3.63,0,0,1-5.7,0,5.226,5.226,0,0,1-.765-3.173ZM24.1,12.168l1.925,7.109,1.849-7.109h2.742L27.351,22.94v7.332h-2.71V22.94a44.59,44.59,0,0,0-1.658-5.728c-.571-1.68-1.166-3.366-1.738-5.044H24.1ZM55.191,55.1a5.058,5.058,0,0,1-4.327,3.933,134.458,134.458,0,0,1-14.989.554,134.452,134.452,0,0,1-14.989-.554A5.054,5.054,0,0,1,16.56,55.1a42.823,42.823,0,0,1-.7-9.462,42.874,42.874,0,0,1,.706-9.462,5.053,5.053,0,0,1,4.325-3.933,134.471,134.471,0,0,1,14.99-.554,134.457,134.457,0,0,1,14.989.554A5.059,5.059,0,0,1,55.2,36.175a42.957,42.957,0,0,1,.691,9.462A42.824,42.824,0,0,1,55.191,55.1Z" fill="#fff"/>
    <path id="Caminho_77" data-name="Caminho 77" d="M65.85,55.046a3.436,3.436,0,0,0-2.9,1.368A5.205,5.205,0,0,0,62.2,59.56v4.677a5.154,5.154,0,0,0,.777,3.139,3.461,3.461,0,0,0,2.927,1.368A3.345,3.345,0,0,0,68.834,67.3a3.446,3.446,0,0,0,.565-1.45c.023-.242.051-.779.051-1.559v-.352H66.984a15.845,15.845,0,0,1-.053,1.638,1.04,1.04,0,0,1-1.081.97c-.831,0-1.238-.617-1.238-1.851V62.323h4.839V59.558a5.247,5.247,0,0,0-.749-3.145A3.359,3.359,0,0,0,65.85,55.046Zm1.183,5.265H64.613V59.075q0-1.852,1.214-1.852c.8,0,1.205.618,1.205,1.852Z" transform="translate(-16.543 -14.639)" fill="#fff"/>
  </g>
</svg>
